<svg width="92" height="68" viewBox="0 0 92 68" fill="none" xmlns="http://www.w3.org/2000/svg">
<path d="M63.3301 1V6.35121" stroke="#5E5F63" stroke-width="0.972943" stroke-linecap="round" stroke-linejoin="round"/>
<path d="M65.9967 3.67578H60.6455" stroke="#5E5F63" stroke-width="0.972943" stroke-linecap="round" stroke-linejoin="round"/>
<ellipse cx="3.31775" cy="59.6723" rx="1.67224" ry="1.67225" stroke="#5E5F63" stroke-width="0.836123"/>
<path d="M83.5535 37L81.6455 38.908L83.7125 40.975L85.6205 39.067L83.5535 37Z" fill="#5E5F63"/>
<path d="M83.5535 42.7236L81.6455 44.6316L83.7125 46.6987L85.6205 44.7906L83.5535 42.7236Z" fill="#5E5F63"/>
<path d="M89.4475 37L91.3555 38.908L89.2885 40.975L87.3805 39.067L89.4475 37Z" fill="#5E5F63"/>
<path d="M89.4475 42.7227L91.3555 44.6307L89.2885 46.6977L87.3805 44.7897L89.4475 42.7227Z" fill="#5E5F63"/>
<path d="M1.89558 19L0.645508 20.2501L1.99975 21.6043L3.24982 20.3543L1.89558 19Z" fill="#5E5F63"/>
<path d="M1.89558 22.75L0.645508 24.0001L1.99975 25.3543L3.24982 24.1043L1.89558 22.75Z" fill="#5E5F63"/>
<path d="M5.7636 19L7.01367 20.2501L5.65943 21.6043L4.40936 20.3543L5.7636 19Z" fill="#5E5F63"/>
<path d="M5.7636 22.752L7.01367 24.002L5.65943 25.3563L4.40936 24.1062L5.7636 22.752Z" fill="#5E5F63"/>
<path d="M22.0377 26.803C21.3281 26.0775 21.3411 24.9141 22.0667 24.2045L22.2309 24.0439L35.3359 37.4448L35.1717 37.6054C34.4461 38.315 33.2827 38.302 32.5731 37.5764L22.0377 26.803Z" fill="#CEF0F7"/>
<path d="M28.6445 17.9248L28.8088 17.7642C29.5343 17.0547 30.6977 17.0676 31.4073 17.7932L42.0996 28.727C42.8091 29.4526 42.7961 30.616 42.0706 31.3255L41.9063 31.4861L28.6445 17.9248Z" fill="#CEF0F7"/>
<path d="M23.6699 20.4912L25.1479 19.0459L40.2909 34.5308L38.8129 35.9762L23.6699 20.4912Z" fill="#CEF0F7"/>
<circle cx="31.8677" cy="27.7457" r="11.1402" stroke="#86939E" stroke-width="0.5"/>
<path d="M57.332 61.95C57.005 61.4882 56.8415 61.2574 56.8065 61.0174C56.7757 60.8062 56.8125 60.5908 56.9117 60.4019C57.0244 60.1872 57.2553 60.0237 57.7171 59.6967L63.2408 55.7855C63.7025 55.4586 63.9334 55.2951 64.1734 55.2601C64.3845 55.2293 64.6 55.2661 64.7889 55.3652C65.0036 55.478 65.1671 55.7089 65.494 56.1706L66.1027 57.0303C66.4297 57.492 66.5932 57.7229 66.6282 57.9629C66.659 58.174 66.6222 58.3895 66.523 58.5784C66.4103 58.7931 66.1794 58.9566 65.7176 59.2835L60.194 63.1947C59.7322 63.5217 59.5013 63.6852 59.2613 63.7202C59.0502 63.751 58.8348 63.7142 58.6459 63.615C58.4311 63.5023 58.2676 63.2714 57.9407 62.8096L57.332 61.95Z" fill="#13BCE6"/>
<path d="M49.333 42L55.5962 50.8453L49.333 42Z" fill="#13BCE6"/>
<path d="M56.4232 54.4857C57.5232 54.6737 58.5673 53.9344 58.7553 52.8345C58.9432 51.7345 58.204 50.6904 57.104 50.5024C56.0041 50.3145 54.96 51.0537 54.772 52.1537C54.584 53.2536 55.3233 54.2977 56.4232 54.4857Z" fill="#13BCE6"/>
<path d="M63.394 55.6771L63.2057 48.9849C63.1952 48.611 63.1899 48.4241 63.1272 48.2619C63.0717 48.1185 62.9842 47.9897 62.8714 47.8852C62.7438 47.767 62.572 47.6931 62.2285 47.5454L49.333 42M49.333 42L50.2809 56.0052C50.3061 56.3784 50.3188 56.5649 50.3879 56.7245C50.4489 56.8656 50.5414 56.9909 50.6583 57.0909C50.7904 57.2039 50.965 57.271 51.3141 57.405L57.5639 59.8052M49.333 42L55.5962 50.8453M60.194 63.1947L65.7176 59.2835C66.1794 58.9566 66.4103 58.7931 66.523 58.5784C66.6222 58.3895 66.659 58.174 66.6282 57.9629C66.5932 57.7229 66.4297 57.492 66.1027 57.0303L65.494 56.1706C65.1671 55.7089 65.0036 55.478 64.7889 55.3652C64.6 55.2661 64.3845 55.2293 64.1734 55.2601C63.9334 55.2951 63.7025 55.4586 63.2408 55.7855L57.7171 59.6967C57.2553 60.0237 57.0244 60.1872 56.9117 60.4019C56.8125 60.5908 56.7757 60.8062 56.8065 61.0174C56.8415 61.2574 57.005 61.4882 57.332 61.95L57.9407 62.8096C58.2676 63.2714 58.4311 63.5023 58.6459 63.615C58.8348 63.7142 59.0502 63.751 59.2613 63.7202C59.5013 63.6852 59.7322 63.5217 60.194 63.1947ZM58.7553 52.8345C58.5673 53.9344 57.5232 54.6737 56.4232 54.4857C55.3233 54.2977 54.584 53.2536 54.772 52.1537C54.96 51.0537 56.0041 50.3145 57.104 50.5024C58.204 50.6904 58.9432 51.7345 58.7553 52.8345Z" stroke="#13BCE6" stroke-linecap="round" stroke-linejoin="round"/>
<path d="M31.6332 42.2129L42.5739 61.1627H20.6925L31.6332 42.2129Z" fill="#B9E9F4" stroke="#86939E" stroke-width="0.5"/>
<path d="M33.5 43C33.5 44.1046 32.6046 45 31.5 45C30.3954 45 29.5 44.1046 29.5 43C29.5 41.8954 30.3954 41 31.5 41C32.6046 41 33.5 41.8954 33.5 43Z" fill="white" stroke="#86939E" stroke-width="0.5"/>
<path d="M23.5 61C23.5 62.1046 22.6046 63 21.5 63C20.3954 63 19.5 62.1046 19.5 61C19.5 59.8954 20.3954 59 21.5 59C22.6046 59 23.5 59.8954 23.5 61Z" fill="white" stroke="#86939E" stroke-width="0.5"/>
<path d="M43.5 61C43.5 62.1046 42.6046 63 41.5 63C40.3954 63 39.5 62.1046 39.5 61C39.5 59.8954 40.3954 59 41.5 59C42.6046 59 43.5 59.8954 43.5 61Z" fill="white" stroke="#86939E" stroke-width="0.5"/>
<path d="M52.1066 38.2131H67.2131V18H47V35.1066" stroke="#13BCE6" stroke-width="0.75"/>
<path d="M69 18C69 19.1046 68.1046 20 67 20C65.8954 20 65 19.1046 65 18C65 16.8954 65.8954 16 67 16C68.1046 16 69 16.8954 69 18Z" fill="white" stroke="#13BCE6" stroke-width="0.75"/>
<path d="M49 18C49 19.1046 48.1046 20 47 20C45.8954 20 45 19.1046 45 18C45 16.8954 45.8954 16 47 16C48.1046 16 49 16.8954 49 18Z" fill="white" stroke="#13BCE6" stroke-width="0.75"/>
<path d="M69 38C69 39.1046 68.1046 40 67 40C65.8954 40 65 39.1046 65 38C65 36.8954 65.8954 36 67 36C68.1046 36 69 36.8954 69 38Z" fill="white" stroke="#13BCE6" stroke-width="0.75"/>
</svg>
